<?xml version="1.0" standalone="no"?>
<!DOCTYPE svg PUBLIC "-//W3C//DTD SVG 20010904//EN"
 "http://www.w3.org/TR/2001/REC-SVG-20010904/DTD/svg10.dtd">
<svg version="1.0" xmlns="http://www.w3.org/2000/svg"
 width="501.000000pt" height="501.000000pt" viewBox="0 0 501.000000 501.000000"
 preserveAspectRatio="xMidYMid meet">
<metadata>
Created by potrace 1.14, written by Peter Selinger 2001-2017
</metadata>
<g transform="translate(0.000000,501.000000) scale(0.100000,-0.100000)"
fill="#000000" stroke="none">
<path d="M1120 5003 c-176 -27 -308 -69 -444 -141 -356 -188 -607 -544 -663
-942 -4 -30 -8 -674 -8 -1430 1 -1293 2 -1380 19 -1460 22 -104 47 -181 80
-254 14 -31 26 -59 26 -61 0 -12 95 -163 134 -213 128 -167 322 -317 513 -396
79 -33 214 -72 278 -80 28 -4 66 -10 85 -13 51 -8 2642 -7 2722 1 80 9 110 14
163 28 22 5 47 11 55 13 39 8 152 51 215 82 241 119 457 334 575 572 68 137
113 293 127 439 8 88 8 2649 0 2728 -28 273 -151 539 -339 735 -83 86 -231
209 -252 209 -3 0 -27 14 -53 30 -47 30 -222 103 -278 116 -193 44 -139 42
-1575 42 -745 -1 -1366 -3 -1380 -5z m701 -619 c174 -59 232 -67 474 -69 239
-1 314 -11 442 -54 45 -16 80 -24 76 -17 -3 6 -19 27 -35 47 -15 20 -28 39
-28 42 0 7 365 -119 505 -174 227 -90 425 -208 518 -309 23 -25 63 -73 89
-107 79 -104 177 -161 341 -198 184 -42 353 -127 495 -251 52 -45 119 -144
149 -220 37 -95 39 -252 5 -364 -21 -68 -77 -200 -85 -200 -2 0 -4 26 -4 58 0
31 -9 84 -20 117 -11 33 -21 73 -22 89 -4 85 -102 137 -203 108 -45 -13 -50
-12 -79 8 -49 36 -113 51 -167 40 -26 -5 -97 -19 -158 -30 l-111 -21 -73 20
c-193 54 -412 -20 -502 -168 -32 -53 -33 -59 -33 -156 0 -87 4 -109 29 -170
58 -141 151 -251 288 -341 41 -27 83 -55 94 -62 16 -10 4 -12 -71 -7 -141 9
-272 48 -385 115 -29 17 -55 29 -57 26 -6 -6 23 -93 54 -164 l23 -54 37 54
c19 29 39 56 44 61 5 4 7 5 5 1 -2 -3 18 -59 45 -125 27 -66 66 -170 85 -232
20 -61 45 -128 55 -147 22 -44 75 -95 114 -110 27 -11 28 -13 10 -20 -11 -4
-52 -15 -92 -25 -72 -17 -73 -17 -120 5 -110 51 -166 103 -255 235 -192 282
-267 352 -413 391 -55 15 -219 18 -250 4 -13 -6 -15 -9 -5 -9 22 -1 99 -55
150 -105 47 -46 102 -145 115 -205 l7 -34 -36 23 c-41 25 -94 35 -132 26 -76
-19 -127 -152 -94 -243 10 -25 7 -24 -32 16 -51 53 -55 46 -51 -72 9 -303 114
-560 315 -772 42 -44 75 -81 74 -83 -10 -9 -298 104 -417 163 -213 108 -466
294 -620 456 l-46 49 -34 -55 c-19 -30 -38 -55 -43 -55 -15 0 -77 68 -203 224
-83 103 -213 343 -268 496 -30 86 -70 236 -80 300 -4 25 -8 47 -10 50 -16 26
-24 343 -12 475 l7 80 -42 -92 c-24 -50 -47 -95 -52 -100 -5 -4 -7 -3 -4 2 3
6 9 35 12 66 4 31 9 67 11 79 2 12 7 46 10 74 3 28 7 62 9 76 2 14 7 52 11 85
4 33 9 67 10 76 2 9 6 40 10 70 3 30 8 65 10 79 2 14 6 50 10 80 12 105 15
112 40 106 12 -3 40 -8 61 -12 121 -18 228 -55 378 -131 60 -30 119 -57 130
-60 38 -10 180 -11 231 -3 28 5 66 11 85 15 49 8 304 74 492 127 145 41 159
44 194 32 75 -26 99 -78 62 -134 -26 -40 -99 -81 -131 -74 -47 9 -154 6 -193
-4 -47 -14 -130 -66 -144 -91 -8 -16 -4 -16 48 2 89 30 132 31 234 7 176 -41
343 -19 366 48 6 17 5 45 -3 78 -16 69 -11 107 19 158 46 79 143 145 212 146
17 0 53 -10 79 -21 50 -22 153 -30 208 -16 26 7 27 10 27 68 0 100 -47 150
-196 209 -75 30 -214 67 -278 75 -75 9 -149 14 -131 9 11 -3 38 -12 60 -19 22
-7 60 -18 84 -25 43 -11 43 -12 21 -27 -45 -32 -151 -62 -203 -57 -53 4 -76
16 -210 111 -49 34 -105 66 -125 70 -70 14 -187 3 -357 -33 -29 -7 -206 -5
-251 2 -121 18 -274 78 -338 132 -18 15 -18 14 1 -13 69 -97 254 -217 382
-246 74 -17 76 -17 168 -23 235 -16 301 -33 329 -87 18 -35 18 -33 -1 -68 -20
-39 -60 -69 -103 -77 -59 -11 -129 12 -327 106 -91 43 -166 66 -245 75 l-55 7
45 -27 c64 -38 123 -88 139 -118 12 -23 12 -29 -2 -50 -32 -49 -187 -66 -270
-29 -59 26 -105 76 -152 167 -97 185 -205 250 -410 247 -55 -1 -116 -6 -135
-11 -34 -9 -33 -9 20 -11 30 -1 66 -3 80 -5 150 -24 203 -51 208 -103 3 -27
-4 -39 -48 -82 -34 -33 -56 -48 -64 -42 -83 63 -197 126 -260 142 -162 43
-342 136 -480 249 -81 67 -152 139 -121 123 108 -54 246 -96 378 -116 79 -12
255 -13 332 -3 117 16 152 32 72 33 -135 1 -265 32 -382 90 -61 31 -177 105
-172 111 2 2 46 -3 98 -11 179 -28 292 -38 444 -38 93 0 285 10 320 17 11 2
27 4 35 4 18 1 -58 54 -115 80 -77 36 -112 49 -156 57 -24 4 -47 9 -51 10 -5
1 -36 2 -70 3 -52 2 -59 4 -39 12 47 19 192 36 278 33 118 -4 194 -21 445
-103 264 -85 356 -99 531 -77 69 9 69 14 1 22 -202 23 -404 95 -601 216 -99
61 -126 87 -57 56 27 -11 92 -36 145 -54z"/>
</g>
</svg>
